# xmcd
#
# Track frame offsets: 
#        150
#        35925
#        52116
#        70634
#        86943
#        100320
#        117116
#        132910
#        146437
#        161021
#        179297
#        199882
#        215346
#        243598
#        257861
#        274130
#        288502
#        320802
#
# Disc length: 4686 seconds
#
# Revision: 0
# Processed by: cddbd v1.5.2PL0 Copyright (c) Steve Scherf et al.
# Submitted via: ExactAudioCopy v1.0b3
#
DISCID=23124c12
DTITLE=Various Artist - I Love Dance - CD 2
DYEAR=1900
DGENRE=
TTITLE0=Holy Ghost - Superman
TTITLE1=Hooligan - System Overload
TTITLE2=Nightwalkers - Push The Feeling On 2003 (Move It, Move It Edit
TTITLE2=)
TTITLE3=Ken Laszlo Vs. Disco Dice - Hey Hey Guy (80's Vocal Radio Edit
TTITLE3=)
TTITLE4=Sam La More - Takin' Hold (Radio Edit)
TTITLE5=Imhoof Feat. Tylene - Such A Good Feeling (Radio Mix)
TTITLE6=Larusa - In Your Life
TTITLE7=Lorna - Papi Chulo... Te Traigo El Mmmm (Radio Edit)
TTITLE8=Katrina - Sunshine
TTITLE9=Tomy Or Zox - Music Makes Me Happy
TTITLE10=Envelopez Vs. Please OK Sound - One Kiss
TTITLE11=Robbie Rivera Pres. D-Monsta - Got To Let You Know (Radio Cut
TTITLE11=)
TTITLE12=Alexx - Last Night A DJ Saved My Life 2003 (Original Club Mix
TTITLE12=)
TTITLE13=Mission One - Military Drum (Radio Cut 2003)
TTITLE14=Latrousse - Puertorico
TTITLE15=Marascia - Shake It (Radio Edit)
TTITLE16=Axwell - Lead Guitar (Axwell Club)
TTITLE17=Microkids - Everybody (Bazooka's Gum Mix)
EXTD=
EXTT0=
EXTT1=
EXTT2=
EXTT3=
EXTT4=
EXTT5=
EXTT6=
EXTT7=
EXTT8=
EXTT9=
EXTT10=
EXTT11=
EXTT12=
EXTT13=
EXTT14=
EXTT15=
EXTT16=
EXTT17=
PLAYORDER=
